<mxfile host="Electron" modified="2023-05-17T14:02:44.606Z" agent="Mozilla/5.0 (X11; Linux x86_64) AppleWebKit/537.36 (KHTML, like Gecko) draw.io/21.2.1 Chrome/112.0.5615.87 Electron/24.1.2 Safari/537.36" etag="PCD_aHANIX6Cq9Ok9RbH" version="21.2.1" type="device" pages="2">
  <diagram name="Page-1_Cas _d_Utilisation" id="UmIE4P2fd-H50XqFwe2B">
    <mxGraphModel dx="1420" dy="1956" grid="1" gridSize="10" guides="1" tooltips="1" connect="1" arrows="1" fold="1" page="1" pageScale="1" pageWidth="850" pageHeight="1100" math="0" shadow="0">
      <root>
        <mxCell id="0" />
        <mxCell id="1" parent="0" />
        <mxCell id="ylg3Waw7DMeZ0q_MYf9F-15" value="Object" style="html=1;whiteSpace=wrap;strokeColor=#0F8B8D;fontColor=#143642;fillColor=#FAE5C7;" vertex="1" parent="1">
          <mxGeometry x="110" y="-120" width="600" height="440" as="geometry" />
        </mxCell>
        <mxCell id="z2HHadsgbJOYD5DmnVuZ-2" value="Consulte catalogue" style="ellipse;whiteSpace=wrap;html=1;strokeColor=#0F8B8D;fontColor=#143642;fillColor=#FAE5C7;" vertex="1" parent="1">
          <mxGeometry x="220" y="10" width="140" height="70" as="geometry" />
        </mxCell>
        <mxCell id="z2HHadsgbJOYD5DmnVuZ-10" style="edgeStyle=orthogonalEdgeStyle;rounded=0;orthogonalLoop=1;jettySize=auto;html=1;exitX=0.5;exitY=0.5;exitDx=0;exitDy=0;exitPerimeter=0;entryX=0;entryY=0.5;entryDx=0;entryDy=0;strokeColor=#A8201A;fontColor=#143642;fillColor=#FAE5C7;" edge="1" parent="1" source="z2HHadsgbJOYD5DmnVuZ-3" target="z2HHadsgbJOYD5DmnVuZ-2">
          <mxGeometry relative="1" as="geometry" />
        </mxCell>
        <mxCell id="z2HHadsgbJOYD5DmnVuZ-11" style="edgeStyle=orthogonalEdgeStyle;rounded=0;orthogonalLoop=1;jettySize=auto;html=1;exitX=0.5;exitY=0.5;exitDx=0;exitDy=0;exitPerimeter=0;entryX=0;entryY=0.5;entryDx=0;entryDy=0;strokeColor=#A8201A;fontColor=#143642;fillColor=#FAE5C7;" edge="1" parent="1" source="z2HHadsgbJOYD5DmnVuZ-3" target="z2HHadsgbJOYD5DmnVuZ-8">
          <mxGeometry relative="1" as="geometry" />
        </mxCell>
        <mxCell id="z2HHadsgbJOYD5DmnVuZ-12" style="edgeStyle=orthogonalEdgeStyle;rounded=0;orthogonalLoop=1;jettySize=auto;html=1;exitX=0.5;exitY=0.5;exitDx=0;exitDy=0;exitPerimeter=0;entryX=0;entryY=0.5;entryDx=0;entryDy=0;strokeColor=#A8201A;fontColor=#143642;fillColor=#FAE5C7;" edge="1" parent="1" source="z2HHadsgbJOYD5DmnVuZ-3" target="z2HHadsgbJOYD5DmnVuZ-6">
          <mxGeometry relative="1" as="geometry" />
        </mxCell>
        <mxCell id="z2HHadsgbJOYD5DmnVuZ-3" value="Client" style="shape=umlActor;verticalLabelPosition=bottom;verticalAlign=top;html=1;strokeColor=#0F8B8D;fontColor=#143642;fillColor=#FAE5C7;" vertex="1" parent="1">
          <mxGeometry x="50" y="15" width="30" height="60" as="geometry" />
        </mxCell>
        <mxCell id="z2HHadsgbJOYD5DmnVuZ-6" value="Passe commande" style="ellipse;whiteSpace=wrap;html=1;strokeColor=#0F8B8D;fontColor=#143642;fillColor=#FAE5C7;" vertex="1" parent="1">
          <mxGeometry x="220" y="110" width="140" height="70" as="geometry" />
        </mxCell>
        <mxCell id="z2HHadsgbJOYD5DmnVuZ-9" style="edgeStyle=orthogonalEdgeStyle;rounded=0;orthogonalLoop=1;jettySize=auto;html=1;exitX=0.5;exitY=0.5;exitDx=0;exitDy=0;exitPerimeter=0;entryX=1;entryY=0.5;entryDx=0;entryDy=0;strokeColor=#A8201A;fontColor=#143642;fillColor=#FAE5C7;" edge="1" parent="1" source="z2HHadsgbJOYD5DmnVuZ-7" target="z2HHadsgbJOYD5DmnVuZ-8">
          <mxGeometry relative="1" as="geometry">
            <Array as="points">
              <mxPoint x="680" y="40" />
              <mxPoint x="680" y="-55" />
            </Array>
          </mxGeometry>
        </mxCell>
        <mxCell id="z2HHadsgbJOYD5DmnVuZ-14" style="edgeStyle=orthogonalEdgeStyle;rounded=0;orthogonalLoop=1;jettySize=auto;html=1;exitX=0.5;exitY=0.5;exitDx=0;exitDy=0;exitPerimeter=0;entryX=1;entryY=0.5;entryDx=0;entryDy=0;strokeColor=#A8201A;fontColor=#143642;fillColor=#FAE5C7;" edge="1" parent="1" source="z2HHadsgbJOYD5DmnVuZ-7" target="z2HHadsgbJOYD5DmnVuZ-13">
          <mxGeometry relative="1" as="geometry">
            <Array as="points">
              <mxPoint x="680" y="40" />
              <mxPoint x="680" y="145" />
            </Array>
          </mxGeometry>
        </mxCell>
        <mxCell id="z2HHadsgbJOYD5DmnVuZ-16" style="edgeStyle=orthogonalEdgeStyle;rounded=0;orthogonalLoop=1;jettySize=auto;html=1;exitX=0.5;exitY=0.5;exitDx=0;exitDy=0;exitPerimeter=0;entryX=1;entryY=0.5;entryDx=0;entryDy=0;strokeColor=#A8201A;fontColor=#143642;fillColor=#FAE5C7;" edge="1" parent="1" source="z2HHadsgbJOYD5DmnVuZ-7" target="z2HHadsgbJOYD5DmnVuZ-15">
          <mxGeometry relative="1" as="geometry">
            <Array as="points">
              <mxPoint x="680" y="40" />
              <mxPoint x="680" y="245" />
            </Array>
          </mxGeometry>
        </mxCell>
        <mxCell id="z2HHadsgbJOYD5DmnVuZ-7" value="Commercial" style="shape=umlActor;verticalLabelPosition=bottom;verticalAlign=top;html=1;strokeColor=#0F8B8D;fontColor=#143642;fillColor=#FAE5C7;" vertex="1" parent="1">
          <mxGeometry x="770" y="10" width="30" height="60" as="geometry" />
        </mxCell>
        <mxCell id="z2HHadsgbJOYD5DmnVuZ-8" value="Se connecte" style="ellipse;whiteSpace=wrap;html=1;strokeColor=#0F8B8D;fontColor=#143642;fillColor=#FAE5C7;" vertex="1" parent="1">
          <mxGeometry x="220" y="-90" width="140" height="70" as="geometry" />
        </mxCell>
        <mxCell id="z2HHadsgbJOYD5DmnVuZ-13" value="Gère ses clients" style="ellipse;whiteSpace=wrap;html=1;strokeColor=#0F8B8D;fontColor=#143642;fillColor=#FAE5C7;" vertex="1" parent="1">
          <mxGeometry x="440" y="110" width="140" height="70" as="geometry" />
        </mxCell>
        <mxCell id="z2HHadsgbJOYD5DmnVuZ-15" value="Gère les stocks" style="ellipse;whiteSpace=wrap;html=1;strokeColor=#0F8B8D;fontColor=#143642;fillColor=#FAE5C7;" vertex="1" parent="1">
          <mxGeometry x="440" y="210" width="140" height="70" as="geometry" />
        </mxCell>
      </root>
    </mxGraphModel>
  </diagram>
  <diagram id="QuHAQUJiWly3kKzq2LLS" name="Page-2">
    <mxGraphModel dx="1420" dy="856" grid="1" gridSize="10" guides="1" tooltips="1" connect="1" arrows="1" fold="1" page="1" pageScale="1" pageWidth="1100" pageHeight="850" math="0" shadow="0">
      <root>
        <mxCell id="0" />
        <mxCell id="1" parent="0" />
      </root>
    </mxGraphModel>
  </diagram>
</mxfile>
